<svg
  width="120"
  height="120"
  viewBox="0 0 120 120"
  xmlns="http://www.w3.org/2000/svg"
>

  <g display="none" id="canvasGrid">
    <rect
      fill="url(#gridpattern)"
      stroke-width="0"
      y="0"
      x="0"
      height="100%"
      width="100%"
      id="svg_1"
    />
  </g>
  <g>
    <ellipse
      fill="none"
      stroke="#0BE5FF"
      stroke-width="5px"
      stroke-opacity="null"
      fill-opacity="null"
      cx="60"
      cy="60"
      id="svg_2"
      rx="55"
      ry="55"
    />
    <path
      id="svg_9"
      d="m24.751171,58.751347l0,0c0,-19.05431 16.116661,-34.500061 35.998318,-34.500061l0,0c9.547455,0 18.703316,3.634314 25.454201,10.104122c6.750732,6.46986 10.543282,15.245827 10.543282,24.395939l0,0c0,19.054211 -16.115608,34.49992 -35.997482,34.49992l0,0c-19.881653,0 -35.998318,-15.445709 -35.998318,-34.49992l0,0zm17.999371,0l0,0c0,9.526363 8.05883,17.249866 17.998947,17.249866c9.94046,0 17.999123,-7.723503 17.999123,-17.249866c0,-9.526699 -8.058662,-17.250172 -17.999123,-17.250172l0,0c-9.940117,0 -17.998947,7.723473 -17.998947,17.250172z"
      stroke-width="2px"
      stroke="#0BE5FF"
      fill="#0BE5FF"
    />
  </g>
</svg>
